<svg width="165" height="100" viewBox="0 0 165 100" fill="none" xmlns="http://www.w3.org/2000/svg">
<rect width="165" height="100" rx="20" fill="white"/>
<path d="M43.5861 53.392C41.7157 60.8943 34.1171 65.46 26.614 63.5892C19.1139 61.7188 14.5482 54.1198 16.4194 46.618C18.289 39.1149 25.8875 34.5486 33.3885 36.4191C40.8912 38.2895 45.4565 45.8893 43.5861 53.392Z" fill="#F7931A"/>
<path d="M36.1771 48.009C36.4559 46.1456 35.0371 45.1439 33.0971 44.4756L33.7264 41.9514L32.1899 41.5685L31.5772 44.0262C31.1733 43.9255 30.7584 43.8306 30.3462 43.7365L30.9632 41.2626L29.4276 40.8796L28.7979 43.403C28.4635 43.3268 28.1353 43.2516 27.8167 43.1724L27.8184 43.1645L25.6995 42.6354L25.2907 44.2765C25.2907 44.2765 26.4307 44.5378 26.4067 44.554C27.029 44.7093 27.1414 45.1211 27.1226 45.4476L26.4058 48.3232C26.4487 48.3342 26.5043 48.3499 26.5655 48.3745C26.5143 48.3618 26.4596 48.3478 26.4032 48.3342L25.3984 52.3626C25.3222 52.5516 25.1292 52.8352 24.6942 52.7275C24.7095 52.7499 23.5774 52.4488 23.5774 52.4488L22.8146 54.2076L24.8141 54.706C25.1861 54.7993 25.5507 54.8968 25.9095 54.9888L25.2736 57.5419L26.8084 57.9248L27.4381 55.3988C27.8574 55.5126 28.2644 55.6176 28.6626 55.7165L28.0351 58.2307L29.5716 58.6136L30.2075 56.0653C32.8275 56.5612 34.7977 56.3612 35.627 53.9914C36.2953 52.0833 35.5938 50.9827 34.2152 50.265C35.2192 50.0335 35.9754 49.3731 36.1771 48.009ZM32.6665 52.9319C32.1917 54.84 28.979 53.8085 27.9375 53.5498L28.7812 50.1674C29.8228 50.4274 33.1627 50.942 32.6665 52.9319ZM33.1417 47.9815C32.7085 49.7171 30.0346 48.8353 29.1672 48.6191L29.9322 45.5513C30.7996 45.7675 33.5929 46.171 33.1417 47.9815Z" fill="white"/>
<path d="M57.0382 44.4731C58.1738 44.4731 59.155 44.6766 59.9795 45.0762C60.8079 45.4797 61.4914 46.0232 62.0398 46.7068C62.5807 47.3938 62.9833 48.1969 63.2433 49.1172C63.5015 50.0402 63.631 51.0323 63.631 52.0944C63.631 53.7259 63.3321 55.2672 62.7286 56.7201C62.1251 58.1752 61.3063 59.4374 60.2648 60.5139C59.2241 61.5892 57.9952 62.4369 56.5782 63.0631C55.1634 63.6898 53.6251 64.0031 51.9735 64.0031C51.7599 64.0031 51.3844 63.997 50.854 63.9861C50.3236 63.9751 49.714 63.9204 49.0313 63.8281C48.3442 63.7322 47.6178 63.5904 46.8506 63.4005C46.0839 63.2141 45.3557 62.9528 44.6699 62.6211L50.802 36.8553L56.2942 36.0042L54.0986 45.1475C54.5686 44.9357 55.0421 44.7716 55.5148 44.6521C55.9878 44.5344 56.4955 44.4731 57.0382 44.4731ZM52.4312 59.6461C53.2584 59.6461 54.0378 59.4426 54.7699 59.0431C55.5043 58.6431 56.138 58.103 56.6688 57.4304C57.1996 56.7547 57.6198 55.9937 57.9261 55.1434C58.2324 54.2931 58.3874 53.406 58.3874 52.483C58.3874 51.3491 58.1979 50.4647 57.8202 49.8253C57.4425 49.1886 56.7436 48.8682 55.7288 48.8682C55.3962 48.8682 54.9677 48.9317 54.4365 49.045C53.9034 49.1654 53.4264 49.4153 52.9988 49.7912L50.661 59.5013C50.802 59.5262 50.9267 59.5498 51.033 59.5722C51.1372 59.5962 51.2523 59.6133 51.3669 59.6251C51.4882 59.6387 51.6269 59.6457 51.7945 59.6457C51.9621 59.6457 52.1717 59.6461 52.4312 59.6461Z" fill="#4D4D4D"/>
<path d="M69.3279 63.5099H64.082L68.5121 44.8683H73.7939L69.3279 63.5099ZM71.8806 42.597C71.1484 42.597 70.4845 42.3791 69.8955 41.9423C69.3016 41.5082 69.0075 40.84 69.0075 39.9393C69.0075 39.4439 69.1082 38.9792 69.3077 38.5407C69.5104 38.103 69.7751 37.7262 70.1069 37.4059C70.4381 37.0882 70.8219 36.8343 71.2578 36.6431C71.6963 36.4549 72.1628 36.3608 72.66 36.3608C73.3917 36.3608 74.0521 36.5788 74.6433 37.0155C75.2323 37.4545 75.5286 38.1227 75.5286 39.0186C75.5286 39.5157 75.4284 39.9822 75.2271 40.4198C75.0271 40.8575 74.7623 41.2343 74.4306 41.5546C74.102 41.8728 73.7147 42.1257 73.2797 42.3152C72.8407 42.5064 72.376 42.597 71.8806 42.597Z" fill="#4D4D4D"/>
<path d="M78.3908 40.2237L83.8852 39.3726L82.536 44.8674H88.4204L87.3578 49.1903H81.5089L79.951 55.711C79.8074 56.2545 79.726 56.7621 79.7033 57.2339C79.6774 57.7078 79.7374 58.1148 79.8792 58.4575C80.0201 58.801 80.2735 59.0658 80.6411 59.2531C81.007 59.4435 81.5308 59.5393 82.2179 59.5393C82.7837 59.5393 83.3351 59.4855 83.8682 59.3787C84.3981 59.2737 84.9351 59.1275 85.4786 58.9363L85.8699 62.9782C85.1609 63.2381 84.3933 63.4618 83.5662 63.65C82.7378 63.8408 81.7571 63.9327 80.6236 63.9327C78.9939 63.9327 77.7304 63.6907 76.8302 63.2088C75.9314 62.7235 75.2959 62.0605 74.9156 61.2211C74.5406 60.3848 74.373 59.4207 74.4198 58.3345C74.4684 57.2457 74.6325 56.1013 74.9156 54.8961L78.3908 40.2237Z" fill="#4D4D4D"/>
<path d="M88.1895 56.0659C88.1895 54.4602 88.4494 52.9461 88.9689 51.5286C89.4875 50.1098 90.2345 48.8691 91.2038 47.8044C92.1697 46.7449 93.3465 45.9055 94.7316 45.2893C96.1101 44.6766 97.6536 44.3677 99.3546 44.3677C100.419 44.3677 101.37 44.4683 102.207 44.6701C103.047 44.8736 103.808 45.1366 104.495 45.4666L102.686 49.5803C102.213 49.3886 101.723 49.2197 101.215 49.0665C100.708 48.9103 100.088 48.835 99.3551 48.835C97.6041 48.835 96.2199 49.4385 95.1897 50.6415C94.1635 51.8454 93.6467 53.466 93.6467 55.4987C93.6467 56.7035 93.9066 57.6777 94.4283 58.423C94.9473 59.1682 95.9061 59.5389 97.2982 59.5389C97.9853 59.5389 98.6483 59.4672 99.2833 59.3271C99.9231 59.1853 100.488 59.0068 100.986 58.7958L101.377 63.0128C100.714 63.2701 99.9822 63.5025 99.1796 63.706C98.3752 63.9025 97.4177 64.0045 96.3074 64.0045C94.8418 64.0045 93.6012 63.79 92.5863 63.3677C91.571 62.9389 90.7321 62.3695 90.0712 61.6483C89.4069 60.9253 88.9299 60.0811 88.635 59.1122C88.34 58.1442 88.1895 57.1271 88.1895 56.0659Z" fill="#4D4D4D"/>
<path d="M111.492 64.0045C110.24 64.0045 109.153 63.8137 108.23 63.436C107.31 63.0583 106.548 62.5284 105.946 61.8413C105.342 61.1577 104.891 60.3476 104.581 59.4142C104.272 58.4812 104.123 57.4479 104.123 56.3158C104.123 54.8957 104.351 53.476 104.812 52.0603C105.271 50.6415 105.951 49.3667 106.852 48.2337C107.745 47.0989 108.848 46.1711 110.146 45.4477C111.442 44.7292 112.934 44.3677 114.609 44.3677C115.838 44.3677 116.92 44.5589 117.855 44.9366C118.786 45.3134 119.553 45.8477 120.159 46.5313C120.759 47.2184 121.214 48.0249 121.52 48.9597C121.829 49.891 121.981 50.9268 121.981 52.0599C121.981 53.4756 121.756 54.8952 121.31 56.3153C120.863 57.7284 120.2 59.0063 119.325 60.142C118.451 61.275 117.359 62.2023 116.047 62.9227C114.737 63.643 113.217 64.0045 111.492 64.0045ZM114.114 48.8354C113.336 48.8354 112.649 49.0612 112.06 49.5072C111.47 49.9584 110.973 50.5255 110.573 51.2095C110.169 51.8966 109.869 52.6458 109.666 53.4603C109.466 54.2764 109.367 55.048 109.367 55.781C109.367 56.9639 109.558 57.8851 109.933 58.5481C110.313 59.2076 110.996 59.5394 111.989 59.5394C112.77 59.5394 113.454 59.3153 114.046 58.8645C114.633 58.4168 115.13 57.8492 115.533 57.1639C115.935 56.4803 116.237 55.7289 116.44 54.9132C116.638 54.0996 116.739 53.3237 116.739 52.592C116.739 51.4122 116.549 50.4888 116.17 49.8266C115.792 49.1671 115.106 48.8354 114.114 48.8354Z" fill="#4D4D4D"/>
<path d="M127.697 63.5099H122.447L126.877 44.8683H132.162L127.697 63.5099ZM130.246 42.597C129.515 42.597 128.851 42.3791 128.263 41.9423C127.672 41.5082 127.375 40.84 127.375 39.9393C127.375 39.4439 127.477 38.9792 127.677 38.5407C127.877 38.103 128.144 37.7262 128.476 37.4059C128.805 37.0882 129.192 36.8343 129.627 36.6431C130.063 36.4549 130.53 36.3608 131.025 36.3608C131.759 36.3608 132.421 36.5788 133.011 37.0155C133.602 37.4545 133.9 38.1227 133.9 39.0186C133.9 39.5157 133.794 39.9822 133.595 40.4198C133.397 40.8575 133.131 41.2343 132.8 41.5546C132.468 41.8728 132.085 42.1257 131.649 42.3152C131.21 42.5064 130.744 42.597 130.246 42.597Z" fill="#4D4D4D"/>
<path d="M135.943 45.7162C136.341 45.5997 136.786 45.4597 137.27 45.3074C137.755 45.1551 138.297 45.0133 138.903 44.8856C139.502 44.7538 140.178 44.647 140.922 44.5643C141.665 44.4799 142.512 44.4387 143.454 44.4387C146.22 44.4387 148.128 45.2444 149.18 46.8509C150.233 48.4575 150.415 50.6561 149.732 53.4429L147.319 63.5084H142.038L144.377 53.6547C144.52 53.0394 144.632 52.4447 144.714 51.8635C144.798 51.2876 144.793 50.78 144.696 50.3406C144.602 49.9065 144.383 49.5511 144.042 49.2758C143.696 49.0049 143.173 48.8688 142.463 48.8688C141.779 48.8688 141.083 48.9424 140.373 49.0841L136.935 63.5079H131.652L135.943 45.7162Z" fill="#4D4D4D"/>
</svg>
