<svg width="165" height="100" viewBox="0 0 165 100" fill="none" xmlns="http://www.w3.org/2000/svg">
<rect width="165" height="100" rx="20" fill="white"/>
<path d="M59.5212 38.9752C58.6539 40.0167 57.2663 40.8381 55.8786 40.7207C55.7051 39.3126 56.3845 37.8164 57.1795 36.8922C58.0468 35.8214 59.5646 35.0587 60.7932 35C60.9378 36.4669 60.374 37.9044 59.5212 38.9752ZM60.7788 40.9994C58.7695 40.8821 57.0494 42.1583 56.0954 42.1583C55.1269 42.1583 53.667 41.0581 52.077 41.0875C50.01 41.1168 48.0875 42.3049 47.0323 44.1972C44.864 47.9817 46.4685 53.5851 48.5645 56.6655C49.5908 58.191 50.8194 59.8632 52.4384 59.8046C53.9706 59.7459 54.5777 58.7924 56.4279 58.7924C58.2925 58.7924 58.8274 59.8046 60.4463 59.7752C62.1231 59.7459 63.1783 58.2497 64.2045 56.7242C65.3754 54.9933 65.8524 53.3064 65.8813 53.2184C65.8524 53.189 62.6434 51.9422 62.6145 48.187C62.5856 45.048 65.1441 43.5518 65.2597 43.4638C63.8143 41.2928 61.5593 41.0581 60.7788 40.9994ZM72.386 36.7456V59.6139H75.884V51.7955H80.7264C85.1495 51.7955 88.2573 48.7151 88.2573 44.2559C88.2573 39.7966 85.2073 36.7456 80.842 36.7456H72.386ZM75.884 39.7379H79.9169C82.9524 39.7379 84.687 41.3808 84.687 44.2705C84.687 47.1602 82.9524 48.8178 79.9024 48.8178H75.884V39.7379ZM94.6463 59.7899C96.8434 59.7899 98.8816 58.6604 99.8067 56.8708H99.8789V59.6139H103.117V48.2311C103.117 44.9306 100.515 42.8037 96.511 42.8037C92.7961 42.8037 90.0497 44.96 89.9485 47.923H93.0997C93.3598 46.5148 94.6463 45.5907 96.4098 45.5907C98.5491 45.5907 99.7488 46.6028 99.7488 48.4657V49.7272L95.3835 49.9913C91.3217 50.2406 89.1246 51.9275 89.1246 54.8612C89.1246 57.8243 91.394 59.7899 94.6463 59.7899ZM95.5859 57.0762C93.7212 57.0762 92.5359 56.1667 92.5359 54.7732C92.5359 53.3357 93.6778 52.4996 95.8605 52.3676L99.7488 52.1182V53.4091C99.7488 55.5507 97.9565 57.0762 95.5859 57.0762ZM107.439 65.8333C110.85 65.8333 112.455 64.5132 113.857 60.5086L120 43.0237H116.444L112.325 56.5335H112.252L108.133 43.0237H104.476L110.402 59.6725L110.084 60.6847C109.549 62.4009 108.682 63.061 107.135 63.061C106.861 63.061 106.326 63.0316 106.109 63.0023V65.7453C106.311 65.804 107.179 65.8333 107.439 65.8333Z" fill="black"/>
</svg>
