<svg width="165" height="100" viewBox="0 0 165 100" fill="none" xmlns="http://www.w3.org/2000/svg">
<rect width="165" height="100" rx="20" fill="white"/>
<path d="M79.8441 49.1528V59.4408H76.5254V33.9973H85.154C87.2559 33.9973 89.2471 34.7717 90.7959 36.2098C92.3446 37.5373 93.119 39.5285 93.119 41.6304C93.119 43.7322 92.3446 45.6128 90.7959 47.0509C89.2471 48.489 87.3665 49.2634 85.154 49.2634L79.8441 49.1528ZM79.8441 37.0948V45.9447H85.3753C86.5922 45.9447 87.809 45.5022 88.5834 44.6172C90.3534 42.9578 90.3534 40.1922 88.694 38.5329L88.5834 38.4223C87.6984 37.5373 86.5922 36.9842 85.3753 37.0948H79.8441Z" fill="#5F6368"/>
<path d="M100.752 41.5198C103.186 41.5198 105.067 42.1835 106.505 43.511C107.943 44.8385 108.606 46.6085 108.606 48.8209V59.4408H105.509V57.0071H105.398C104.071 58.9983 102.19 59.9939 99.9778 59.9939C98.0972 59.9939 96.4379 59.4408 95.1104 58.3346C93.8935 57.2283 93.1191 55.6796 93.1191 54.0203C93.1191 52.2503 93.7829 50.8122 95.1104 49.7059C96.4379 48.5997 98.3185 48.1572 100.531 48.1572C102.522 48.1572 104.071 48.4891 105.288 49.2634V48.4891C105.288 47.3828 104.845 46.2766 103.96 45.6129C103.075 44.8385 101.969 44.396 100.752 44.396C98.8716 44.396 97.4335 45.1704 96.4379 46.7191L93.5616 44.9491C95.3316 42.626 97.6547 41.5198 100.752 41.5198ZM96.5485 54.1309C96.5485 55.0159 96.991 55.7902 97.6547 56.2327C98.4291 56.7859 99.3141 57.1177 100.199 57.1177C101.527 57.1177 102.854 56.5646 103.85 55.569C104.956 54.5734 105.509 53.3565 105.509 52.029C104.513 51.2547 103.075 50.8122 101.195 50.8122C99.8672 50.8122 98.761 51.144 97.876 51.8078C96.991 52.3609 96.5485 53.1353 96.5485 54.1309Z" fill="#5F6368"/>
<path d="M126.526 42.0728L115.574 67.1843H112.256L116.349 58.4451L109.158 42.1834H112.698L117.897 54.6839H118.008L123.097 42.1834H126.526V42.0728Z" fill="#5F6368"/>
<path d="M66.6781 46.9402C66.6781 45.9446 66.5675 44.949 66.4569 43.9534H52.6289V49.5952H60.4832C60.1513 51.3652 59.1557 53.0245 57.607 54.0201V57.6707H62.3638C65.1294 55.1264 66.6781 51.3652 66.6781 46.9402Z" fill="#4285F4"/>
<path d="M52.6298 61.2105C56.6123 61.2105 59.931 59.883 62.3647 57.6706L57.6079 54.02C56.2804 54.905 54.621 55.4581 52.6298 55.4581C48.8686 55.4581 45.5499 52.9137 44.4436 49.3738H39.5762V53.135C42.1205 58.1131 47.0986 61.2105 52.6298 61.2105Z" fill="#34A853"/>
<path d="M44.4439 49.374C43.7802 47.604 43.7802 45.6128 44.4439 43.7322V39.9709H39.5765C37.4746 44.064 37.4746 48.9315 39.5765 53.1352L44.4439 49.374Z" fill="#FBBC04"/>
<path d="M52.6305 37.7584C54.7323 37.7584 56.7236 38.5328 58.2723 39.9709L62.476 35.7672C59.821 33.3334 56.2811 31.8953 52.7411 32.006C47.2099 32.006 42.1212 35.1034 39.6875 40.0815L44.5549 43.8427C45.5506 40.3027 48.8693 37.7584 52.6305 37.7584Z" fill="#EA4335"/>
</svg>
