<svg width="165" height="100" viewBox="0 0 165 100" fill="none" xmlns="http://www.w3.org/2000/svg">
<rect width="165" height="100" rx="20" fill="white"/>
<g clip-path="url(#clip0_0_93)">
<path fill-rule="evenodd" clip-rule="evenodd" d="M64.4358 25.2407L54.0427 46.8141C54.0032 46.8944 53.9906 46.985 54.007 47.0728C54.0233 47.1606 54.0676 47.2409 54.1334 47.302L82.2027 73.8822C82.2824 73.9578 82.3886 74 82.4991 74C82.6095 74 82.7157 73.9578 82.7955 73.8822L110.865 47.3037C110.931 47.2426 110.975 47.1622 110.991 47.0745C111.007 46.9867 110.995 46.896 110.955 46.8158L100.562 25.2423C100.529 25.1699 100.475 25.1085 100.407 25.0655C100.339 25.0226 100.26 24.9998 100.179 25H64.8221C64.7411 24.999 64.6615 25.0212 64.5929 25.0639C64.5244 25.1066 64.4698 25.168 64.4358 25.2407Z" fill="#50AF95"/>
<path fill-rule="evenodd" clip-rule="evenodd" d="M86.106 49.0296C85.9045 49.0446 84.8633 49.106 82.5409 49.106C80.6937 49.106 79.3821 49.0512 78.922 49.0296C71.7834 48.7193 66.455 47.4913 66.455 46.021C66.455 44.5507 71.7834 43.3243 78.922 43.009V47.8066C79.3888 47.8398 80.7256 47.9178 82.5728 47.9178C84.7894 47.9178 85.8994 47.8265 86.0993 47.8083V43.0123C93.2228 43.3259 98.5394 44.554 98.5394 46.021C98.5394 47.488 93.2245 48.716 86.0993 49.028L86.106 49.0296ZM86.106 42.5161V38.223H96.0474V31.6763H68.9806V38.223H78.9203V42.5145C70.8413 42.8812 64.7656 44.4627 64.7656 46.3579C64.7656 48.253 70.8413 49.8328 78.9203 50.2012V63.9585H86.1043V50.1963C94.1649 49.8295 100.23 48.2497 100.23 46.3562C100.23 44.4627 94.1699 42.8829 86.1043 42.5145L86.106 42.5161Z" fill="white"/>
</g>
<defs>
<clipPath id="clip0_0_93">
<rect width="57" height="49" fill="white" transform="translate(54 25)"/>
</clipPath>
</defs>
</svg>
